<?xml version="1.0" encoding="UTF-8" standalone="no"?>
<!DOCTYPE svg PUBLIC "-//W3C//DTD SVG 1.1//EN"
 "http://www.w3.org/Graphics/SVG/1.1/DTD/svg11.dtd">
<!-- Generated by graphviz version 2.40.1 (20161225.0304)
 -->
<!-- Title: dependencies Pages: 1 -->
<svg width="739pt" height="284pt"
 viewBox="0.00 0.00 739.00 284.00" xmlns="http://www.w3.org/2000/svg" xmlns:xlink="http://www.w3.org/1999/xlink">
<g id="graph0" class="graph" transform="scale(1 1) rotate(0) translate(4 280)">
<title>dependencies</title>
<polygon fill="#ffffff" stroke="transparent" points="-4,4 -4,-280 735,-280 735,4 -4,4"/>
<text text-anchor="start" x="344.5091" y="-42.4" font-family="sans-serif" font-weight="bold" font-size="14.00" fill="#000000">Legend</text>
<polygon fill="#ffffb3" stroke="transparent" points="131.5,-10 131.5,-30 151.5,-30 151.5,-10 131.5,-10"/>
<text text-anchor="start" x="155.129" y="-15.4" font-family="sans-serif" font-size="14.00" fill="#000000"> &#160;Declarations</text>
<polygon fill="#8dd3c7" stroke="transparent" points="244.5,-10 244.5,-30 264.5,-30 264.5,-10 244.5,-10"/>
<text text-anchor="start" x="268.2251" y="-15.4" font-family="sans-serif" font-size="14.00" fill="#000000"> &#160;Module</text>
<polygon fill="#80b1d3" stroke="transparent" points="330.5,-10 330.5,-30 350.5,-30 350.5,-10 330.5,-10"/>
<text text-anchor="start" x="354.2812" y="-15.4" font-family="sans-serif" font-size="14.00" fill="#000000"> &#160;Bootstrap</text>
<polygon fill="#fdb462" stroke="transparent" points="427.5,-10 427.5,-30 447.5,-30 447.5,-10 427.5,-10"/>
<text text-anchor="start" x="451.1732" y="-15.4" font-family="sans-serif" font-size="14.00" fill="#000000"> &#160;Providers</text>
<polygon fill="#fb8072" stroke="transparent" points="523.5,-10 523.5,-30 543.5,-30 543.5,-10 523.5,-10"/>
<text text-anchor="start" x="547.2258" y="-15.4" font-family="sans-serif" font-size="14.00" fill="#000000"> &#160;Exports</text>
<g id="clust1" class="cluster">
<title>cluster_KioNg2MarkdownModule</title>
<polygon fill="none" stroke="#000000" stroke-dasharray="1,5" points="8,-70 8,-268 723,-268 723,-70 8,-70"/>
</g>
<g id="clust2" class="cluster">
<title>cluster_KioNg2MarkdownModule_declarations</title>
<polygon fill="none" stroke="#000000" points="557,-78 557,-130 715,-130 715,-78 557,-78"/>
</g>
<g id="clust4" class="cluster">
<title>cluster_KioNg2MarkdownModule_imports</title>
<polygon fill="none" stroke="#000000" points="427,-78 427,-130 549,-130 549,-78 427,-78"/>
</g>
<g id="clust5" class="cluster">
<title>cluster_KioNg2MarkdownModule_exports</title>
<polygon fill="none" stroke="#000000" points="333,-208 333,-260 495,-260 495,-208 333,-208"/>
</g>
<g id="clust7" class="cluster">
<title>cluster_KioNg2MarkdownModule_providers</title>
<polygon fill="none" stroke="#000000" points="16,-78 16,-130 419,-130 419,-78 16,-78"/>
</g>
<!-- MarkdownComponent -->
<g id="node1" class="node">
<title>MarkdownComponent</title>
<polygon fill="#ffffb3" stroke="#000000" points="707.259,-122 564.741,-122 564.741,-86 707.259,-86 707.259,-122"/>
<text text-anchor="middle" x="636" y="-99.8" font-family="Times,serif" font-size="14.00" fill="#000000">MarkdownComponent</text>
</g>
<!-- KioNg2MarkdownModule -->
<g id="node2" class="node">
<title>KioNg2MarkdownModule</title>
<polygon fill="#8dd3c7" stroke="#000000" points="497.08,-187 494.08,-191 473.08,-191 470.08,-187 330.92,-187 330.92,-151 497.08,-151 497.08,-187"/>
<text text-anchor="middle" x="414" y="-164.8" font-family="Times,serif" font-size="14.00" fill="#000000">KioNg2MarkdownModule</text>
</g>
<!-- MarkdownComponent&#45;&gt;KioNg2MarkdownModule -->
<g id="edge1" class="edge">
<title>MarkdownComponent&#45;&gt;KioNg2MarkdownModule</title>
<path fill="none" stroke="#000000" d="M636,-122.1061C636,-141.3391 636,-169 636,-169 636,-169 507.2962,-169 507.2962,-169"/>
<polygon fill="#000000" stroke="#000000" points="507.2963,-165.5001 497.2962,-169 507.2962,-172.5001 507.2963,-165.5001"/>
</g>
<!-- MarkdownComponent  -->
<g id="node4" class="node">
<title>MarkdownComponent </title>
<polygon fill="#fb8072" stroke="#000000" points="487.259,-252 340.741,-252 340.741,-216 487.259,-216 487.259,-252"/>
<text text-anchor="middle" x="414" y="-229.8" font-family="Times,serif" font-size="14.00" fill="#000000">MarkdownComponent </text>
</g>
<!-- KioNg2MarkdownModule&#45;&gt;MarkdownComponent  -->
<g id="edge3" class="edge">
<title>KioNg2MarkdownModule&#45;&gt;MarkdownComponent </title>
<path fill="none" stroke="#000000" stroke-dasharray="5,2" d="M414,-187.1061C414,-187.1061 414,-205.991 414,-205.991"/>
<polygon fill="#000000" stroke="#000000" points="410.5001,-205.9909 414,-215.991 417.5001,-205.991 410.5001,-205.9909"/>
</g>
<!-- BrowserModule -->
<g id="node3" class="node">
<title>BrowserModule</title>
<polygon fill="#8dd3c7" stroke="#000000" points="541.4734,-122 538.4734,-126 517.4734,-126 514.4734,-122 434.5266,-122 434.5266,-86 541.4734,-86 541.4734,-122"/>
<text text-anchor="middle" x="488" y="-99.8" font-family="Times,serif" font-size="14.00" fill="#000000">BrowserModule</text>
</g>
<!-- BrowserModule&#45;&gt;KioNg2MarkdownModule -->
<g id="edge2" class="edge">
<title>BrowserModule&#45;&gt;KioNg2MarkdownModule</title>
<path fill="none" stroke="#000000" d="M465.7767,-122.1061C465.7767,-122.1061 465.7767,-140.991 465.7767,-140.991"/>
<polygon fill="#000000" stroke="#000000" points="462.2767,-140.9909 465.7767,-150.991 469.2767,-140.991 462.2767,-140.9909"/>
</g>
<!-- ConfigProvider -->
<g id="node5" class="node">
<title>ConfigProvider</title>
<ellipse fill="#fdb462" stroke="#000000" cx="340" cy="-104" rx="71.2288" ry="18"/>
<text text-anchor="middle" x="340" y="-99.8" font-family="Times,serif" font-size="14.00" fill="#000000">ConfigProvider</text>
</g>
<!-- ConfigProvider&#45;&gt;KioNg2MarkdownModule -->
<g id="edge4" class="edge">
<title>ConfigProvider&#45;&gt;KioNg2MarkdownModule</title>
<path fill="none" stroke="#000000" d="M371.0371,-120.4022C371.0371,-120.4022 371.0371,-140.5366 371.0371,-140.5366"/>
<polygon fill="#000000" stroke="#000000" points="367.5372,-140.5366 371.0371,-150.5366 374.5372,-140.5367 367.5372,-140.5366"/>
</g>
<!-- KioNg2MarkdownService -->
<g id="node6" class="node">
<title>KioNg2MarkdownService</title>
<ellipse fill="#fdb462" stroke="#000000" cx="137" cy="-104" rx="113.449" ry="18"/>
<text text-anchor="middle" x="137" y="-99.8" font-family="Times,serif" font-size="14.00" fill="#000000">KioNg2MarkdownService</text>
</g>
<!-- KioNg2MarkdownService&#45;&gt;KioNg2MarkdownModule -->
<g id="edge5" class="edge">
<title>KioNg2MarkdownService&#45;&gt;KioNg2MarkdownModule</title>
<path fill="none" stroke="#000000" d="M137,-122.1061C137,-141.3391 137,-169 137,-169 137,-169 320.8909,-169 320.8909,-169"/>
<polygon fill="#000000" stroke="#000000" points="320.8909,-172.5001 330.8909,-169 320.8908,-165.5001 320.8909,-172.5001"/>
</g>
</g>
</svg>
